<?xml version="1.0" encoding="UTF-8"?>
<svg xmlns="http://www.w3.org/2000/svg" width="276.4142857142857mm" height="314mm" viewBox="0 0 276.4142857142857 314">
<g id="all-layers">
  <!-- Layer 1 -->
  <g id="layer1" transform="translate(0, 0)">
    <rect x="0" y="0" width="127" height="98" fill="none" stroke="black" stroke-width="0.1"/>
  </g>

  <!-- Layer 2 -->
  <g id="layer2" transform="translate(0, 108)">
    <rect x="0" y="0" width="127" height="98" fill="none" stroke="black" stroke-width="0.1"/>
    <path d="M 111.4 21.2 L 112.72661418970968 21.330660093258032 L 114.00224734008262 21.71761917892325 L 115.1778775845333 22.346006636342693 L 116.20832611206853 23.19167388793148 L 117.05399336365731 24.222122415466707 L 117.68238082107675 25.39775265991739 L 118.06933990674197 26.673385810290327 L 118.2 28 L 118.06933990674197 29.326614189709673 L 117.68238082107675 30.60224734008261 L 117.05399336365731 31.777877584533293 L 116.20832611206853 32.80832611206852 L 115.1778775845333 33.65399336365731 L 114.00224734008262 34.28238082107675 L 112.72661418970968 34.66933990674197 L 111.4 34.8 L 15.600000000000001 34.8 L 14.27338581029033 34.66933990674197 L 12.997752659917392 34.28238082107675 L 11.822122415466708 33.65399336365731 L 10.791673887931479 32.80832611206852 L 9.946006636342693 31.777877584533293 L 9.317619178923252 30.602247340082613 L 8.930660093258034 29.326614189709673 L 8.8 28 L 8.930660093258034 26.673385810290327 L 9.317619178923252 25.39775265991739 L 9.946006636342693 24.222122415466707 L 10.791673887931477 23.19167388793148 L 11.822122415466707 22.346006636342693 L 12.997752659917387 21.71761917892325 L 14.273385810290327 21.330660093258032 L 15.6 21.2 Z" fill="none" stroke="black" stroke-width="0.1"/>
    <path d="M 111.4 37.2 L 112.72661418970968 37.33066009325803 L 114.00224734008262 37.71761917892325 L 115.1778775845333 38.34600663634269 L 116.20832611206853 39.19167388793148 L 117.05399336365731 40.22212241546671 L 117.68238082107675 41.39775265991739 L 118.06933990674197 42.67338581029033 L 118.2 44 L 118.06933990674197 45.32661418970967 L 117.68238082107675 46.60224734008261 L 117.05399336365731 47.77787758453329 L 116.20832611206853 48.80832611206852 L 115.1778775845333 49.65399336365731 L 114.00224734008262 50.28238082107675 L 112.72661418970968 50.66933990674197 L 111.4 50.8 L 15.600000000000001 50.8 L 14.27338581029033 50.66933990674197 L 12.997752659917392 50.28238082107675 L 11.822122415466708 49.65399336365731 L 10.791673887931479 48.80832611206852 L 9.946006636342693 47.77787758453329 L 9.317619178923252 46.60224734008261 L 8.930660093258034 45.32661418970967 L 8.8 44 L 8.930660093258034 42.67338581029033 L 9.317619178923252 41.39775265991739 L 9.946006636342693 40.22212241546671 L 10.791673887931477 39.19167388793148 L 11.822122415466707 38.34600663634269 L 12.997752659917387 37.71761917892325 L 14.273385810290327 37.33066009325803 L 15.6 37.2 Z" fill="none" stroke="black" stroke-width="0.1"/>
    <path d="M 111.4 53.2 L 112.72661418970968 53.33066009325803 L 114.00224734008262 53.71761917892325 L 115.1778775845333 54.34600663634269 L 116.20832611206853 55.19167388793148 L 117.05399336365731 56.22212241546671 L 117.68238082107675 57.39775265991739 L 118.06933990674197 58.67338581029033 L 118.2 60 L 118.06933990674197 61.32661418970967 L 117.68238082107675 62.60224734008261 L 117.05399336365731 63.77787758453329 L 116.20832611206853 64.80832611206853 L 115.1778775845333 65.6539933636573 L 114.00224734008262 66.28238082107674 L 112.72661418970968 66.66933990674197 L 111.4 66.8 L 15.600000000000001 66.8 L 14.27338581029033 66.66933990674197 L 12.997752659917392 66.28238082107674 L 11.822122415466708 65.6539933636573 L 10.791673887931479 64.80832611206853 L 9.946006636342693 63.77787758453329 L 9.317619178923252 62.60224734008261 L 8.930660093258034 61.32661418970967 L 8.8 60 L 8.930660093258034 58.67338581029033 L 9.317619178923252 57.39775265991739 L 9.946006636342693 56.22212241546671 L 10.791673887931477 55.19167388793148 L 11.822122415466707 54.34600663634269 L 12.997752659917387 53.71761917892325 L 14.273385810290327 53.33066009325803 L 15.6 53.2 Z" fill="none" stroke="black" stroke-width="0.1"/>
  </g>

  <!-- Layer 3 -->
  <g id="layer3" transform="translate(0, 216)">
    <rect x="0" y="0" width="127" height="98" fill="none" stroke="black" stroke-width="0.1"/>
    <path d="M 111.49999999999999 21.8 L 112.70955999649998 21.91913126149997 L 113.87263728066354 22.271946898430024 L 114.94453544472152 22.84488840372422 L 115.88406204335658 23.615937956643407 L 116.65511159627576 24.555464555278466 L 117.22805310156997 25.627362719336443 L 117.58086873850002 26.790440003500006 L 117.69999999999999 28 L 117.58086873850002 29.209559996499994 L 117.22805310156997 30.372637280663557 L 116.65511159627577 31.444535444721534 L 115.88406204335658 32.38406204335659 L 114.94453544472152 33.15511159627578 L 113.87263728066354 33.72805310156998 L 112.70955999649998 34.08086873850003 L 111.49999999999999 34.2 L 87.61428571428571 34.2 L 86.40472571778572 34.08086873850003 L 85.24164843362216 33.72805310156998 L 84.16975026956418 33.15511159627578 L 83.23022367092912 32.38406204335659 L 82.45917411800993 31.444535444721534 L 81.88623261271573 30.372637280663557 L 81.53341697578568 29.209559996499998 L 81.41428571428571 28 L 81.53341697578568 26.790440003500002 L 81.88623261271573 25.627362719336443 L 82.45917411800993 24.55546455527847 L 83.23022367092912 23.615937956643407 L 84.16975026956418 22.84488840372422 L 85.24164843362216 22.271946898430024 L 86.40472571778571 21.91913126149997 L 87.61428571428571 21.8 Z" fill="none" stroke="black" stroke-width="0.1"/>
    <path d="M 111.49999999999999 37.8 L 112.70955999649998 37.91913126149997 L 113.87263728066354 38.27194689843002 L 114.94453544472152 38.84488840372422 L 115.88406204335658 39.61593795664341 L 116.65511159627576 40.55546455527847 L 117.22805310156997 41.627362719336446 L 117.58086873850002 42.7904400035 L 117.69999999999999 44 L 117.58086873850002 45.2095599965 L 117.22805310156997 46.372637280663554 L 116.65511159627577 47.44453544472153 L 115.88406204335658 48.38406204335659 L 114.94453544472152 49.15511159627578 L 113.87263728066354 49.72805310156998 L 112.70955999649998 50.08086873850003 L 111.49999999999999 50.2 L 87.61428571428571 50.2 L 86.40472571778572 50.08086873850003 L 85.24164843362216 49.72805310156998 L 84.16975026956418 49.15511159627578 L 83.23022367092912 48.38406204335659 L 82.45917411800993 47.44453544472153 L 81.88623261271573 46.372637280663554 L 81.53341697578568 45.2095599965 L 81.41428571428571 44 L 81.53341697578568 42.7904400035 L 81.88623261271573 41.627362719336446 L 82.45917411800993 40.55546455527847 L 83.23022367092912 39.61593795664341 L 84.16975026956418 38.84488840372422 L 85.24164843362216 38.27194689843002 L 86.40472571778571 37.91913126149997 L 87.61428571428571 37.8 Z" fill="none" stroke="black" stroke-width="0.1"/>
    <path d="M 111.49999999999999 53.8 L 112.70955999649998 53.91913126149997 L 113.87263728066354 54.27194689843002 L 114.94453544472152 54.84488840372422 L 115.88406204335658 55.61593795664341 L 116.65511159627576 56.55546455527847 L 117.22805310156997 57.627362719336446 L 117.58086873850002 58.7904400035 L 117.69999999999999 60 L 117.58086873850002 61.2095599965 L 117.22805310156997 62.372637280663554 L 116.65511159627577 63.44453544472153 L 115.88406204335658 64.3840620433566 L 114.94453544472152 65.15511159627579 L 113.87263728066354 65.72805310156998 L 112.70955999649998 66.08086873850003 L 111.49999999999999 66.2 L 87.61428571428571 66.2 L 86.40472571778572 66.08086873850003 L 85.24164843362216 65.72805310156998 L 84.16975026956418 65.15511159627579 L 83.23022367092912 64.3840620433566 L 82.45917411800993 63.44453544472153 L 81.88623261271573 62.372637280663554 L 81.53341697578568 61.2095599965 L 81.41428571428571 60 L 81.53341697578568 58.7904400035 L 81.88623261271573 57.627362719336446 L 82.45917411800993 56.55546455527847 L 83.23022367092912 55.61593795664341 L 84.16975026956418 54.84488840372422 L 85.24164843362216 54.27194689843002 L 86.40472571778571 53.91913126149997 L 87.61428571428571 53.8 Z" fill="none" stroke="black" stroke-width="0.1"/>
  </g>

  <!-- Sliders -->
  <g id="sliders" transform="translate(137, 0)">
    <path d="M 66.41428571428573 0 L 67.72139087179379 0.12873862129835612 L 68.97826471113183 0.5100071321743789 L 70.13660627551707 1.1291535975729472 L 71.1519011482356 1.9623845660501322 L 71.98513211671278 2.9776794387686656 L 72.60427858211135 4.136021003153898 L 72.98554709298737 5.392894842491941 L 73.11428571428573 6.7 L 72.98554709298737 8.00710515750806 L 72.60427858211135 9.263978996846102 L 71.98513211671278 10.422320561231334 L 71.1519011482356 11.437615433949869 L 70.13660627551705 12.270846402427054 L 68.97826471113183 12.889992867825622 L 67.72139087179379 13.271261378701645 L 66.41428571428573 13.4 L 6.7 13.4 L 5.392894842491941 13.271261378701645 L 4.136021003153899 12.889992867825622 L 2.977679438768667 12.270846402427054 L 1.9623845660501322 11.437615433949869 L 1.1291535975729463 10.422320561231334 L 0.5100071321743789 9.263978996846102 L 0.12873862129835612 8.007105157508061 L 0 6.700000000000001 L 0.12873862129835612 5.39289484249194 L 0.510007132174378 4.1360210031539 L 1.1291535975729454 2.977679438768667 L 1.9623845660501305 1.9623845660501322 L 2.9776794387686656 1.1291535975729472 L 4.136021003153894 0.5100071321743807 L 5.392894842491938 0.128738621298357 L 6.699999999999999 0 Z" fill="none" stroke="black" stroke-width="0.1"/>
    <path d="M 66.41428571428573 18.4 L 67.72139087179379 18.528738621298352 L 68.97826471113183 18.91000713217438 L 70.13660627551707 19.529153597572943 L 71.1519011482356 20.36238456605013 L 71.98513211671278 21.377679438768663 L 72.60427858211135 22.536021003153895 L 72.98554709298737 23.79289484249194 L 73.11428571428573 25.099999999999998 L 72.98554709298737 26.407105157508056 L 72.60427858211135 27.6639789968461 L 71.98513211671278 28.822320561231333 L 71.1519011482356 29.837615433949864 L 70.13660627551705 30.670846402427053 L 68.97826471113183 31.289992867825617 L 67.72139087179379 31.671261378701644 L 66.41428571428573 31.799999999999997 L 6.7 31.799999999999997 L 5.392894842491941 31.671261378701644 L 4.136021003153899 31.289992867825617 L 2.977679438768667 30.670846402427053 L 1.9623845660501322 29.837615433949868 L 1.1291535975729463 28.822320561231333 L 0.5100071321743789 27.6639789968461 L 0.12873862129835612 26.40710515750806 L 0 25.099999999999998 L 0.12873862129835612 23.792894842491936 L 0.510007132174378 22.5360210031539 L 1.1291535975729454 21.377679438768666 L 1.9623845660501305 20.36238456605013 L 2.9776794387686656 19.529153597572943 L 4.136021003153894 18.91000713217438 L 5.392894842491938 18.528738621298356 L 6.699999999999999 18.4 Z" fill="none" stroke="black" stroke-width="0.1"/>
    <path d="M 66.41428571428573 36.8 L 67.72139087179379 36.92873862129836 L 68.97826471113183 37.31000713217438 L 70.13660627551707 37.92915359757295 L 71.1519011482356 38.76238456605013 L 71.98513211671278 39.777679438768665 L 72.60427858211135 40.9360210031539 L 72.98554709298737 42.19289484249194 L 73.11428571428573 43.5 L 72.98554709298737 44.80710515750806 L 72.60427858211135 46.0639789968461 L 71.98513211671278 47.222320561231335 L 71.1519011482356 48.23761543394987 L 70.13660627551705 49.07084640242705 L 68.97826471113183 49.68999286782562 L 67.72139087179379 50.07126137870164 L 66.41428571428573 50.2 L 6.7 50.2 L 5.392894842491941 50.07126137870164 L 4.136021003153899 49.68999286782562 L 2.977679438768667 49.07084640242705 L 1.9623845660501322 48.23761543394987 L 1.1291535975729463 47.222320561231335 L 0.5100071321743789 46.0639789968461 L 0.12873862129835612 44.80710515750806 L 0 43.5 L 0.12873862129835612 42.19289484249194 L 0.510007132174378 40.9360210031539 L 1.1291535975729454 39.777679438768665 L 1.9623845660501305 38.76238456605013 L 2.9776794387686656 37.92915359757295 L 4.136021003153894 37.31000713217438 L 5.392894842491938 36.92873862129836 L 6.699999999999999 36.8 Z" fill="none" stroke="black" stroke-width="0.1"/>
  </g>

  <!-- Knobs -->
  <g id="knobs" transform="translate(220.11428571428573, 0)">
    <circle cx="6.05" cy="6.05" r="6.05" fill="none" stroke="black" stroke-width="0.1"/>
    <circle cx="23.150000000000002" cy="6.05" r="6.05" fill="none" stroke="black" stroke-width="0.1"/>
    <circle cx="40.25" cy="6.05" r="6.05" fill="none" stroke="black" stroke-width="0.1"/>
  </g>
</g>
</svg>